<?xml version="1.0" encoding="UTF-8"?>
<svg width="247px" height="247px" viewBox="0 0 247 247" version="1.1" xmlns="http://www.w3.org/2000/svg" xmlns:xlink="http://www.w3.org/1999/xlink">
    <title>Snowflake</title>
    <defs>
        <rect id="path-1" x="0" y="0" width="247" height="247"></rect>
    </defs>
    <g id="Page-1" stroke="none" stroke-width="1" fill="none" fill-rule="evenodd">
        <g id="Snowflake">
            <mask id="mask-2" fill="white">
                <use xlink:href="#path-1"></use>
            </mask>
            <g id="Mask"></g>
            <g id="Group-7" mask="url(#mask-2)" stroke-linecap="round">
                <g transform="translate(42.530869, 43.000000)" id="Group-6">
                    <g transform="translate(67.000000, 0.000000)">
                        <line x1="13.4691307" y1="-1.33330846e-14" x2="12.9691307" y2="160.5" id="Line-2" stroke="#39AFF4" stroke-width="5"></line>
                        <polyline id="Path-2" stroke="#39AFF4" stroke-width="5" points="1.42186447e-14 6.35179536 13.4691307 22.8707973 26.7879191 6.35179536"></polyline>
                        <polyline id="Path-2-Copy-2" stroke="#39AFF4" stroke-width="5" transform="translate(13.393960, 126.611296) scale(1, -1) translate(-13.393960, -126.611296) " points="1.42186447e-14 118.351795 13.4691307 134.870797 26.7879191 118.351795"></polyline>
                        <polyline id="Path-2-Copy" stroke="#39AFF4" stroke-width="5" points="1.42186447e-14 26.3517954 13.4691307 42.8707973 26.7879191 26.3517954"></polyline>
                        <polyline id="Path-2-Copy-3" stroke="#39AFF4" stroke-width="5" transform="translate(13.393960, 146.611296) scale(1, -1) translate(-13.393960, -146.611296) " points="1.42186447e-14 138.351795 13.4691307 154.870797 26.7879191 138.351795"></polyline>
                    </g>
                    <g transform="translate(80.500000, 80.500000) rotate(45.000000) translate(-80.500000, -80.500000) translate(67.000000, 0.000000)">
                        <line x1="13.4691307" y1="-1.33330846e-14" x2="12.9691307" y2="160.5" id="Line-2" stroke="#39AFF4" stroke-width="5"></line>
                        <polyline id="Path-2" stroke="#39AFF4" stroke-width="5" points="1.42186447e-14 6.35179536 13.4691307 22.8707973 26.7879191 6.35179536"></polyline>
                        <polyline id="Path-2-Copy-2" stroke="#39AFF4" stroke-width="5" transform="translate(13.393960, 126.611296) scale(1, -1) translate(-13.393960, -126.611296) " points="1.42186447e-14 118.351795 13.4691307 134.870797 26.7879191 118.351795"></polyline>
                        <polyline id="Path-2-Copy" stroke="#39AFF4" stroke-width="5" points="1.42186447e-14 26.3517954 13.4691307 42.8707973 26.7879191 26.3517954"></polyline>
                        <polyline id="Path-2-Copy-3" stroke="#39AFF4" stroke-width="5" transform="translate(13.393960, 146.611296) scale(1, -1) translate(-13.393960, -146.611296) " points="1.42186447e-14 138.351795 13.4691307 154.870797 26.7879191 138.351795"></polyline>
                    </g>
                    <g transform="translate(80.500000, 80.500000) rotate(90.000000) translate(-80.500000, -80.500000) translate(67.000000, 0.000000)">
                        <line x1="13.4691307" y1="-1.33330846e-14" x2="12.9691307" y2="160.5" id="Line-2" stroke="#39AFF4" stroke-width="5"></line>
                        <polyline id="Path-2" stroke="#39AFF4" stroke-width="5" points="1.42186447e-14 6.35179536 13.4691307 22.8707973 26.7879191 6.35179536"></polyline>
                        <polyline id="Path-2-Copy-2" stroke="#39AFF4" stroke-width="5" transform="translate(13.393960, 126.611296) scale(1, -1) translate(-13.393960, -126.611296) " points="1.42186447e-14 118.351795 13.4691307 134.870797 26.7879191 118.351795"></polyline>
                        <polyline id="Path-2-Copy" stroke="#39AFF4" stroke-width="5" points="1.42186447e-14 26.3517954 13.4691307 42.8707973 26.7879191 26.3517954"></polyline>
                        <polyline id="Path-2-Copy-3" stroke="#39AFF4" stroke-width="5" transform="translate(13.393960, 146.611296) scale(1, -1) translate(-13.393960, -146.611296) " points="1.42186447e-14 138.351795 13.4691307 154.870797 26.7879191 138.351795"></polyline>
                    </g>
                    <g transform="translate(80.500000, 80.500000) rotate(135.000000) translate(-80.500000, -80.500000) translate(67.000000, 0.000000)">
                        <line x1="13.4691307" y1="-1.33330846e-14" x2="12.9691307" y2="160.5" id="Line-2" stroke="#39AFF4" stroke-width="5"></line>
                        <polyline id="Path-2" stroke="#39AFF4" stroke-width="5" points="1.42186447e-14 6.35179536 13.4691307 22.8707973 26.7879191 6.35179536"></polyline>
                        <polyline id="Path-2-Copy-2" stroke="#39AFF4" stroke-width="5" transform="translate(13.393960, 126.611296) scale(1, -1) translate(-13.393960, -126.611296) " points="1.42186447e-14 118.351795 13.4691307 134.870797 26.7879191 118.351795"></polyline>
                        <polyline id="Path-2-Copy" stroke="#39AFF4" stroke-width="5" points="1.42186447e-14 26.3517954 13.4691307 42.8707973 26.7879191 26.3517954"></polyline>
                        <polyline id="Path-2-Copy-3" stroke="#39AFF4" stroke-width="5" transform="translate(13.393960, 146.611296) scale(1, -1) translate(-13.393960, -146.611296) " points="1.42186447e-14 138.351795 13.4691307 154.870797 26.7879191 138.351795"></polyline>
                    </g>
                </g>
            </g>
        </g>
    </g>
</svg>